<mxfile host="app.diagrams.net" modified="2021-12-16T10:11:23.680Z" agent="5.0 (Macintosh; Intel Mac OS X 10_15_7) AppleWebKit/537.36 (KHTML, like Gecko) Chrome/96.0.4664.110 Safari/537.36" etag="BU266zADGAeMh7dGlntB" version="15.9.6" type="github">
  <diagram id="O_S_1C7mnXVx_2ppTxM8" name="Page-1">
    <mxGraphModel dx="1298" dy="661" grid="1" gridSize="10" guides="1" tooltips="1" connect="1" arrows="1" fold="1" page="1" pageScale="1" pageWidth="827" pageHeight="1169" math="0" shadow="0">
      <root>
        <mxCell id="0" />
        <mxCell id="1" parent="0" />
        <mxCell id="sJLu_z4rhfdjIrV7n7Sc-42" style="edgeStyle=orthogonalEdgeStyle;rounded=0;orthogonalLoop=1;jettySize=auto;html=1;entryX=1;entryY=0.5;entryDx=0;entryDy=0;startArrow=classic;startFill=1;endArrow=none;endFill=0;" edge="1" parent="1" target="sJLu_z4rhfdjIrV7n7Sc-4">
          <mxGeometry relative="1" as="geometry">
            <mxPoint x="390" y="385" as="sourcePoint" />
          </mxGeometry>
        </mxCell>
        <mxCell id="sJLu_z4rhfdjIrV7n7Sc-1" value="sqlite3" style="shape=cylinder3;whiteSpace=wrap;html=1;boundedLbl=1;backgroundOutline=1;size=15;fillColor=#d5e8d4;strokeColor=#82b366;" vertex="1" parent="1">
          <mxGeometry x="401" y="345" width="90" height="80" as="geometry" />
        </mxCell>
        <mxCell id="sJLu_z4rhfdjIrV7n7Sc-35" style="edgeStyle=orthogonalEdgeStyle;rounded=0;orthogonalLoop=1;jettySize=auto;html=1;startArrow=classic;startFill=1;endArrow=none;endFill=0;" edge="1" parent="1" source="sJLu_z4rhfdjIrV7n7Sc-2" target="sJLu_z4rhfdjIrV7n7Sc-22">
          <mxGeometry relative="1" as="geometry" />
        </mxCell>
        <UserObject label="EasyCron" link="https://www.easycron.com/user" linkTarget="_blank" id="sJLu_z4rhfdjIrV7n7Sc-2">
          <mxCell style="ellipse;shape=cloud;whiteSpace=wrap;html=1;fillColor=#dae8fc;strokeColor=#6c8ebf;" vertex="1" parent="1">
            <mxGeometry x="185" y="90" width="120" height="80" as="geometry" />
          </mxCell>
        </UserObject>
        <mxCell id="sJLu_z4rhfdjIrV7n7Sc-4" value="Application" style="ellipse;whiteSpace=wrap;html=1;fillColor=#f5f5f5;fontColor=#333333;strokeColor=#666666;" vertex="1" parent="1">
          <mxGeometry x="185" y="345" width="120" height="80" as="geometry" />
        </mxCell>
        <mxCell id="sJLu_z4rhfdjIrV7n7Sc-5" value="User" style="shape=umlActor;verticalLabelPosition=bottom;verticalAlign=top;html=1;outlineConnect=0;" vertex="1" parent="1">
          <mxGeometry x="20" y="355" width="30" height="60" as="geometry" />
        </mxCell>
        <mxCell id="sJLu_z4rhfdjIrV7n7Sc-6" value="" style="endArrow=classic;startArrow=classic;html=1;rounded=0;entryX=0;entryY=0.5;entryDx=0;entryDy=0;exitX=0.5;exitY=0.5;exitDx=0;exitDy=0;exitPerimeter=0;" edge="1" parent="1" source="sJLu_z4rhfdjIrV7n7Sc-5" target="sJLu_z4rhfdjIrV7n7Sc-4">
          <mxGeometry width="50" height="50" relative="1" as="geometry">
            <mxPoint x="100" y="385" as="sourcePoint" />
            <mxPoint x="150" y="335" as="targetPoint" />
          </mxGeometry>
        </mxCell>
        <mxCell id="sJLu_z4rhfdjIrV7n7Sc-15" value="" style="shape=image;html=1;verticalAlign=top;verticalLabelPosition=bottom;labelBackgroundColor=#ffffff;imageAspect=0;aspect=fixed;image=https://cdn3.iconfinder.com/data/icons/gis/layer-sqlite-add.png;direction=east;" vertex="1" parent="1">
          <mxGeometry x="452" y="330" width="32" height="32" as="geometry" />
        </mxCell>
        <mxCell id="sJLu_z4rhfdjIrV7n7Sc-16" value="" style="shape=image;html=1;verticalAlign=top;verticalLabelPosition=bottom;labelBackgroundColor=#ffffff;imageAspect=0;aspect=fixed;image=https://cdn1.iconfinder.com/data/icons/Futurosoft%20Icons%200.5.2/128x128/mimetypes/Schedule_File.png" vertex="1" parent="1">
          <mxGeometry x="255" y="80" width="38" height="38" as="geometry" />
        </mxCell>
        <mxCell id="sJLu_z4rhfdjIrV7n7Sc-17" value="" style="aspect=fixed;perimeter=ellipsePerimeter;html=1;align=center;shadow=0;dashed=0;spacingTop=3;image;image=img/lib/active_directory/web_server.svg;" vertex="1" parent="1">
          <mxGeometry x="270" y="335" width="32" height="40" as="geometry" />
        </mxCell>
        <mxCell id="sJLu_z4rhfdjIrV7n7Sc-18" value="" style="dashed=0;outlineConnect=0;html=1;align=center;labelPosition=center;verticalLabelPosition=bottom;verticalAlign=top;shape=mxgraph.webicons.chrome;gradientColor=#DFDEDE" vertex="1" parent="1">
          <mxGeometry x="50" y="335" width="30" height="30" as="geometry" />
        </mxCell>
        <mxCell id="sJLu_z4rhfdjIrV7n7Sc-21" value="" style="shape=image;imageAspect=0;aspect=fixed;verticalLabelPosition=bottom;verticalAlign=top;image=https://cdn.worldvectorlogo.com/logos/next-js.svg;" vertex="1" parent="1">
          <mxGeometry x="200" y="330" width="38" height="38" as="geometry" />
        </mxCell>
        <mxCell id="sJLu_z4rhfdjIrV7n7Sc-27" style="edgeStyle=orthogonalEdgeStyle;rounded=0;orthogonalLoop=1;jettySize=auto;html=1;" edge="1" parent="1" source="sJLu_z4rhfdjIrV7n7Sc-22" target="sJLu_z4rhfdjIrV7n7Sc-25">
          <mxGeometry relative="1" as="geometry" />
        </mxCell>
        <mxCell id="sJLu_z4rhfdjIrV7n7Sc-22" value="" style="shadow=0;dashed=0;html=1;strokeColor=none;fillColor=#4495D1;labelPosition=center;verticalLabelPosition=bottom;verticalAlign=top;align=center;outlineConnect=0;shape=mxgraph.veeam.portal_admin;" vertex="1" parent="1">
          <mxGeometry x="22.8" y="230" width="47.2" height="48.8" as="geometry" />
        </mxCell>
        <mxCell id="sJLu_z4rhfdjIrV7n7Sc-24" value="admin" style="text;html=1;resizable=0;autosize=1;align=center;verticalAlign=middle;points=[];fillColor=none;strokeColor=none;rounded=0;" vertex="1" parent="1">
          <mxGeometry x="20" y="278.79999999999995" width="50" height="20" as="geometry" />
        </mxCell>
        <mxCell id="sJLu_z4rhfdjIrV7n7Sc-28" style="edgeStyle=orthogonalEdgeStyle;rounded=0;orthogonalLoop=1;jettySize=auto;html=1;startArrow=classic;startFill=1;endArrow=none;endFill=0;" edge="1" parent="1" source="sJLu_z4rhfdjIrV7n7Sc-25" target="sJLu_z4rhfdjIrV7n7Sc-4">
          <mxGeometry relative="1" as="geometry">
            <Array as="points">
              <mxPoint x="245" y="290" />
              <mxPoint x="245" y="290" />
            </Array>
          </mxGeometry>
        </mxCell>
        <mxCell id="sJLu_z4rhfdjIrV7n7Sc-65" value="inner API" style="edgeLabel;html=1;align=center;verticalAlign=middle;resizable=0;points=[];fontSize=12;" vertex="1" connectable="0" parent="sJLu_z4rhfdjIrV7n7Sc-28">
          <mxGeometry x="-0.3531" y="1" relative="1" as="geometry">
            <mxPoint as="offset" />
          </mxGeometry>
        </mxCell>
        <mxCell id="sJLu_z4rhfdjIrV7n7Sc-37" style="edgeStyle=orthogonalEdgeStyle;rounded=0;orthogonalLoop=1;jettySize=auto;html=1;startArrow=classic;startFill=1;endArrow=none;endFill=0;" edge="1" parent="1" source="sJLu_z4rhfdjIrV7n7Sc-25" target="sJLu_z4rhfdjIrV7n7Sc-2">
          <mxGeometry relative="1" as="geometry" />
        </mxCell>
        <mxCell id="sJLu_z4rhfdjIrV7n7Sc-64" value="Trigger job (ex. send mail)" style="edgeLabel;html=1;align=center;verticalAlign=middle;resizable=0;points=[];fontSize=12;" vertex="1" connectable="0" parent="sJLu_z4rhfdjIrV7n7Sc-37">
          <mxGeometry x="0.7807" y="-2" relative="1" as="geometry">
            <mxPoint as="offset" />
          </mxGeometry>
        </mxCell>
        <mxCell id="sJLu_z4rhfdjIrV7n7Sc-25" value="API" style="rounded=0;whiteSpace=wrap;html=1;fillColor=#f5f5f5;fontColor=#333333;strokeColor=#666666;" vertex="1" parent="1">
          <mxGeometry x="185" y="224.4" width="120" height="60" as="geometry" />
        </mxCell>
        <mxCell id="sJLu_z4rhfdjIrV7n7Sc-39" value="" style="shape=image;imageAspect=0;aspect=fixed;verticalLabelPosition=bottom;verticalAlign=top;image=https://cdn.worldvectorlogo.com/logos/next-js.svg;" vertex="1" parent="1">
          <mxGeometry x="200" y="200" width="38" height="38" as="geometry" />
        </mxCell>
        <UserObject label="dog.ceo (API)" link="https://dog.ceo/" id="sJLu_z4rhfdjIrV7n7Sc-40">
          <mxCell style="ellipse;shape=cloud;whiteSpace=wrap;html=1;fillColor=#f8cecc;strokeColor=#b85450;" vertex="1" parent="1">
            <mxGeometry x="380" y="90" width="120" height="80" as="geometry" />
          </mxCell>
        </UserObject>
        <mxCell id="sJLu_z4rhfdjIrV7n7Sc-45" style="edgeStyle=orthogonalEdgeStyle;rounded=0;orthogonalLoop=1;jettySize=auto;html=1;entryX=1;entryY=0.5;entryDx=0;entryDy=0;fontSize=12;startArrow=classic;startFill=1;endArrow=none;endFill=0;" edge="1" parent="1" source="sJLu_z4rhfdjIrV7n7Sc-44" target="sJLu_z4rhfdjIrV7n7Sc-25">
          <mxGeometry relative="1" as="geometry" />
        </mxCell>
        <mxCell id="sJLu_z4rhfdjIrV7n7Sc-66" value="Get Dog info" style="edgeLabel;html=1;align=center;verticalAlign=middle;resizable=0;points=[];fontSize=12;labelBorderColor=#FFFFFF;spacingTop=1;spacingBottom=1;spacingRight=1;spacingLeft=1;labelBackgroundColor=#FFCCCC;" vertex="1" connectable="0" parent="sJLu_z4rhfdjIrV7n7Sc-45">
          <mxGeometry x="0.1852" y="3" relative="1" as="geometry">
            <mxPoint x="12" y="-28" as="offset" />
          </mxGeometry>
        </mxCell>
        <UserObject label="&lt;font style=&quot;font-size: 12px&quot;&gt;TheDogAPI&lt;/font&gt;" link="https://www.thedogapi.com/" linkTarget="_blank" id="sJLu_z4rhfdjIrV7n7Sc-44">
          <mxCell style="ellipse;shape=cloud;whiteSpace=wrap;html=1;fillColor=#f8cecc;strokeColor=#b85450;" vertex="1" parent="1">
            <mxGeometry x="386" y="214.4" width="120" height="80" as="geometry" />
          </mxCell>
        </UserObject>
        <mxCell id="sJLu_z4rhfdjIrV7n7Sc-48" value="" style="shape=image;html=1;verticalAlign=top;verticalLabelPosition=bottom;labelBackgroundColor=#ffffff;imageAspect=0;aspect=fixed;image=https://cdn3.iconfinder.com/data/icons/animals-105/150/icon_animal_cachorro-128.png;fontSize=12;" vertex="1" parent="1">
          <mxGeometry x="452" y="210" width="38" height="38" as="geometry" />
        </mxCell>
        <mxCell id="sJLu_z4rhfdjIrV7n7Sc-49" value="" style="shape=image;html=1;verticalAlign=top;verticalLabelPosition=bottom;labelBackgroundColor=#ffffff;imageAspect=0;aspect=fixed;image=https://cdn3.iconfinder.com/data/icons/animals-105/150/icon_animal_cachorro-128.png;fontSize=12;" vertex="1" parent="1">
          <mxGeometry x="452" y="80" width="38" height="38" as="geometry" />
        </mxCell>
        <mxCell id="sJLu_z4rhfdjIrV7n7Sc-60" value="" style="endArrow=classic;html=1;rounded=0;fontSize=12;exitX=1;exitY=0;exitDx=0;exitDy=0;" edge="1" parent="1" source="sJLu_z4rhfdjIrV7n7Sc-25">
          <mxGeometry width="50" height="50" relative="1" as="geometry">
            <mxPoint x="340" y="200" as="sourcePoint" />
            <mxPoint x="390" y="170" as="targetPoint" />
          </mxGeometry>
        </mxCell>
        <mxCell id="sJLu_z4rhfdjIrV7n7Sc-63" value="" style="endArrow=classic;html=1;rounded=0;fontSize=12;exitX=1;exitY=0;exitDx=0;exitDy=0;" edge="1" parent="1">
          <mxGeometry width="50" height="50" relative="1" as="geometry">
            <mxPoint x="305" y="284.4" as="sourcePoint" />
            <mxPoint x="390" y="350" as="targetPoint" />
          </mxGeometry>
        </mxCell>
        <mxCell id="sJLu_z4rhfdjIrV7n7Sc-70" value="&lt;span style=&quot;&quot;&gt;&lt;font style=&quot;font-size: 25px&quot;&gt;Structure of MailDog&lt;/font&gt;&lt;/span&gt;" style="text;html=1;resizable=0;autosize=1;align=center;verticalAlign=middle;points=[];fillColor=none;strokeColor=none;rounded=0;labelBackgroundColor=#FFFFFF;labelBorderColor=#FFFFFF;fontSize=12;" vertex="1" parent="1">
          <mxGeometry x="130" y="30" width="240" height="20" as="geometry" />
        </mxCell>
      </root>
    </mxGraphModel>
  </diagram>
</mxfile>
